<svg width="16" height="16" viewBox="0 0 16 16" fill="none" xmlns="http://www.w3.org/2000/svg">
<path d="M1.1475 1.1475C1.19394 1.10102 1.24908 1.06414 1.30978 1.03897C1.37048 1.01381 1.43554 1.00086 1.50125 1.00086C1.56696 1.00086 1.63202 1.01381 1.69272 1.03897C1.75342 1.06414 1.80857 1.10102 1.855 1.1475L8 7.2925L14.1475 1.1475C14.2413 1.05368 14.3686 1.00098 14.5013 1.00098C14.6339 1.00098 14.7612 1.05368 14.855 1.1475C14.9488 1.24132 15.0015 1.36857 15.0015 1.50125C15.0015 1.63394 14.9488 1.76118 14.855 1.855L8.7075 8L14.8525 14.1475C14.9463 14.2413 14.999 14.3686 14.999 14.5012C14.999 14.6339 14.9463 14.7612 14.8525 14.855C14.7587 14.9488 14.6314 15.0015 14.4988 15.0015C14.3661 15.0015 14.2388 14.9488 14.145 14.855L8 8.7075L1.8525 14.8525C1.75685 14.9344 1.63381 14.9772 1.50798 14.9724C1.38214 14.9675 1.26277 14.9153 1.17372 14.8263C1.08467 14.7372 1.03251 14.6179 1.02765 14.492C1.02279 14.3662 1.06559 14.2431 1.1475 14.1475L7.2925 8L1.1475 1.8525C1.05438 1.75882 1.00211 1.6321 1.00211 1.5C1.00211 1.36791 1.05438 1.24119 1.1475 1.1475Z" fill="#333333"/>
</svg>
